# xmcd
#
# Track frame offsets: 
#        150
#        20578
#        34406
#        50172
#        64678
#        89113
#        104953
#        121104
#        136752
#
# Disc length: 2067 seconds
#
# Revision: 0
# Processed by: cddbd v1.5.2PL0 Copyright (c) Steve Scherf et al.
# Submitted via: ExactAudioCopy v0.95b3
#
DISCID=86081109
DTITLE=Kiss  - Paul Stanley [The Remasters] 16 bit FLAC
DYEAR=1900
DGENRE=
TTITLE0=Tonight You Belong To Me
TTITLE1=Move On
TTITLE2=Ain't Quite Right
TTITLE3=Wouldn't You Like To Know Me
TTITLE4=Take Me Away (Together As One)
TTITLE5=It's Alright
TTITLE6=Hold Me, Touch Me (Think Of Me When We're Apart)
TTITLE7=Love In Chains
TTITLE8=Goodbye
EXTD=
EXTT0=
EXTT1=
EXTT2=
EXTT3=
EXTT4=
EXTT5=
EXTT6=
EXTT7=
EXTT8=
PLAYORDER=
